# AST/ASF file generated using VICON BodyLanguage
# -----------------------------------------------
:version 1.10
:name VICON
:units
  mass 1.0
  length 0.45
  angle deg
:documentation
   .ast/.asf automatically generated from VICON data using
   VICON BodyBuilder and BodyLanguage model FoxedUp or BRILLIANT.MOD
:root
   order TX TY TZ RX RY RZ
   axis XYZ
   position 0 0 0  
   orientation 0 0 0 
:bonedata
  begin
     id 1 
     name lhipjoint
     direction 0.662698 -0.695252 0.27831 
     length 2.53073 
     axis 0 0 0  XYZ
  end
  begin
     id 2 
     name lfemur
     direction 0.34202 -0.939693 0  
     length 7.16147  
     axis 0 0 20  XYZ
    dof rx ry rz
    limits (-160.0 20.0)
           (-70.0 70.0)
           (-60.0 70.0)
  end
  begin
     id 3 
     name ltibia
     direction 0.34202 -0.939693 0   
     length 7.63967   
     axis 0 0 20   XYZ
    dof rx
    limits (-10.0 170.0)
  end
  begin
     id 4 
     name lfoot
     direction 0.0938457 -0.257721 0.961651   
     length 1.89793   
     axis -90 7.62852e-016 20   XYZ
    dof rx rz
    limits (-45.0 90.0)
           (-70.0 20.0)
  end
  begin
     id 5 
     name ltoes
     direction -0.00116841 -0.0030592 0.999995   
     length 0.955649   
     axis -90 7.62852e-016 20   XYZ
    dof rx
    limits (-90.0 20.0)
  end
  begin
     id 6 
     name rhipjoint
     direction -0.649445 -0.705948 0.282592   
     length 2.49238  
     axis 0 0 0  XYZ 
  end
  begin
     id 7 
     name rfemur
     direction -0.34202 -0.939693 0   
     length 6.90728   
     axis 0 0 -20   XYZ
    dof rx ry rz
    limits (-160.0 20.0)
           (-70.0 70.0)
           (-70.0 60.0)
  end
  begin
     id 8 
     name rtibia
     direction -0.34202 -0.939693 0   
     length 7.72868   
     axis 0 0 -20   XYZ
    dof rx
    limits (-10.0 170.0)
 end
 begin
     id 9 
     name rfoot
     direction -0.0920068 -0.252865 0.963117   
     length 1.97476  
     axis -90 -7.62852e-016 -20   XYZ
    dof rx rz
    limits (-45.0 90.0)
           (-20.0 70.0)
  end
  begin
     id 10 
     name rtoes
     direction 0.000391322 0.00230649 0.999997   
     length 0.992641   
     axis -90 -7.62852e-016 -20   XYZ
    dof rx
    limits (-90.0 20.0)
  end
  begin
     id 11 
     name lowerback
     direction -0.00875327 0.998321 -0.0572635   
     length 2.20024   
     axis 0 0 0   XYZ
    dof rx ry rz
    limits (-20.0 45.0)
           (-30.0 30.0)
           (-30.0 30.0)
  end
  begin
     id 12 
     name upperback
     direction 0.00753931 0.999972 -0.000360425   
     length 2.20538   
     axis 0 0 0   XYZ
    dof rx ry rz
    limits (-20.0 45.0)
           (-30.0 30.0)
           (-30.0 30.0)
  end
  begin
     id 13 
     name thorax
     direction 0.0117767 0.999601 0.0256663   
     length 2.21508   
     axis 0 0 0   XYZ
    dof rx ry rz
    limits (-20.0 45.0)
           (-30.0 30.0)
           (-30.0 30.0)
  end
  begin
     id 14 
     name lowerneck
     direction 0.060228 0.994909 0.0807986   
     length 1.7607   
     axis 0 0 0   XYZ
    dof rx ry rz
    limits (-20.0 45.0)
           (-30.0 30.0)
           (-30.0 30.0)
  end
  begin
     id 15 
     name upperneck
     direction -0.0563647 0.959594 -0.275685   
     length 1.75612   
     axis 0 0 0   XYZ
    dof rx ry rz
    limits (-20.0 45.0)
           (-30.0 30.0)
           (-30.0 30.0)
  end
  begin
     id 16
     name head
     direction -0.0161544 0.99458 -0.102714  
     length 1.79288  
     axis 0 0 0   XYZ
    dof rx ry rz
    limits (-20.0 45.0)
           (-30.0 30.0)
           (-30.0 30.0)
  end
  begin
     id 17 
     name lclavicle
     direction 0.93913 0.332189 -0.087669  
     length 3.52087  
     axis 0 0 0   XYZ
    dof ry rz
    limits (-20.0 10.0)
           (0.0 20.0)
  end
  begin
     id 18 
     name lhumerus
     direction 1 -4.48974e-011 -2.70836e-027   
     length 5.35289   
     axis -180 -30 -90   XYZ
    dof rx ry rz
    limits (-60.0 90.0)
           (-90.0 90.0)
           (-90.0 90.0)
  end
  begin
     id 19
     name lradius
     direction 1 -4.48961e-011 -9.76021e-027   
     length 3.27727   
     axis -180 -30 -90   XYZ
    dof rx
    limits (-10.0 170.0)
  end
  begin
     id 20
     name lwrist
     direction 1 -4.49103e-011 -2.23668e-026   
     length 1.63864   
     axis 1.44924e-014 90 90   XYZ
    dof ry
    limits (-180.0 0.0)
 end
  begin
     id 21 
     name lhand
     direction 1 3.0697e-005 0.000161777   
     length 0.54443   
     axis 2.85318e-014 90 90   XYZ
    dof rx rz
    limits (-90.0 90.0)
           (-45.0 45.0)
  end
  begin
     id 22 
     name lfingers
     direction 1 -4.49027e-011 -8.9447e-026   
     length 0.438912   
     axis 5.70628e-014 90 90   XYZ
    dof rx
    limits (0.0 90.0)
  end
  begin
     id 23
     name lthumb
     direction 0.707058 2.6516e-005 0.707156   
     length 0.630274   
     axis -90 45 -3.53137e-014   XYZ
    dof rx rz
    limits (-45.0 45.0)
           (-45.0 45.0)
  end
  begin
     id 24 
     name rclavicle
     direction -0.95274 0.284984 -0.105215   
     length 3.43401  
     axis 0 0 0   XYZ 
    dof ry rz
    limits (-10.0 20.0)
           (-20.0 0.0)
  end
  begin
     id 25 
     name rhumerus
     direction -0.999999 -0.000575019 -0.00106829  
     length 5.52077   
     axis -180 30 90   XYZ
    dof rx ry rz
    limits (-90.0 60.0)
           (-90.0 90.0)
           (-90.0 90.0)
  end
  begin
     id 26 
     name rradius
     direction -1 -4.4879e-011 -6.35415e-027   
     length 3.32364   
     axis -180 30 90   XYZ
    dof rx
    limits (-10.0 170.0)
  end
  begin
     id 27 
     name rwrist
     direction -1 -4.49048e-011 -9.98542e-027   
     length 1.66182   
     axis 6.32482e-015 -90 -90   XYZ
    dof ry
    limits (-180.0 0.0)
  end
  begin
     id 28
     name rhand
     direction -1 -4.48978e-011 -1.99771e-026   
     length 0.732235   
     axis 1.27479e-014 -90 -90   XYZ
    dof rx rz
    limits (-90.0 90.0)
           (-45.0 45.0)
  end
  begin
     id 29
     name rfingers
     direction -1 -4.49144e-011 -3.99245e-026   
     length 0.590347   
     axis 2.5496e-014 -90 -90   XYZ
    dof rx
    limits (0.0 90.0)
  end
  begin
     id 30
     name rthumb
     direction -0.707107 -6.35121e-011 0.707107   
     length 0.847624   
     axis -90 -45 -2.82974e-014   XYZ
    dof rx rz
    limits (-45.0 45.0)
           (-45.0 45.0)
  end
:hierarchy
  begin
    root lhipjoint rhipjoint lowerback
    lhipjoint lfemur
    lfemur ltibia
    ltibia lfoot
    lfoot ltoes
    rhipjoint rfemur
    rfemur rtibia
    rtibia rfoot
    rfoot rtoes
    lowerback upperback
    upperback thorax
    thorax lowerneck lclavicle rclavicle
    lowerneck upperneck
    upperneck head
    lclavicle lhumerus
    lhumerus lradius
    lradius lwrist
    lwrist lhand lthumb
    lhand lfingers
    rclavicle rhumerus
    rhumerus rradius
    rradius rwrist
    rwrist rhand rthumb
    rhand rfingers
  end

#!OML:ASF G:\Work\Work\Patient Classification 1\Elijah\terrain1\Elijah.ASF
:FULLY-SPECIFIED
:DEGREES
109
root 15.6251 23.5932 1.71399 5.02988 3.9615 -0.52475
lowerback 3.5373 0.389305 2.19677
upperback 0.570569 0.621933 1.27644
thorax -1.38824 0.302744 0.0482318
lowerneck -13.347 13.6483 10.1818
upperneck 36.9043 22.7993 -10.9471
head 18.9801 9.42775 -1.88077
rclavicle 3.08116e-015 -1.07344e-014
rhumerus -37.5361 -6.98783 -79.4387
rradius 35.1459
rwrist -3.18521
rhand -14.7022 19.6751
rfingers 7.12502
rthumb 11.452 -9.99208
lclavicle 3.08116e-015 -1.07344e-014
lhumerus -38.1387 34.0817 64.5658
lradius 23.0921
lwrist -5.85485
lhand -9.90767 23.6133
lfingers 7.12502
lthumb 16.0726 52.9667
rfemur -9.52133 -3.23961 26.9976
rtibia 15.1616
rfoot -8.62502 -8.07277
rtoes -1.12783
lfemur -16.9499 2.90185 -18.427
ltibia 68.6202
lfoot 9.34517 -9.23287
ltoes -6.11092
110
root 15.6208 23.618 1.81259 5.07783 4.16843 -0.623626
lowerback 3.55105 0.408439 2.42156
upperback 0.337399 0.661045 1.20668
thorax -1.63131 0.317347 -0.1521
lowerneck -13.1704 13.4455 10.1431
upperneck 37.1846 22.3885 -10.5646
head 18.9368 9.31064 -1.82709
rclavicle -1.3418e-015 -6.36111e-015
rhumerus -37.9504 -6.88989 -79.6352
rradius 35.4613
rwrist -3.53115
rhand -14.7396 19.7137
rfingers 7.12502
rthumb 11.4159 -9.9555
lclavicle -1.3418e-015 -6.36111e-015
lhumerus -38.7933 33.8417 64.0074
lradius 23.2768
lwrist -5.66334
lhand -10.1798 23.0635
lfingers 7.12502
lthumb 15.8105 52.4379
rfemur -9.19831 -3.4855 27.0963
rtibia 15.1963
rfoot -8.8199 -7.95048
rtoes -1.54865
lfemur -18.6716 2.97723 -18.4699
ltibia 69.8928
lfoot 8.70734 -9.47047
ltoes -9.05476
111
root 15.6181 23.61 1.89482 5.14537 4.23188 -0.881062
lowerback 4.07576 0.2366 2.45462
upperback -0.277734 0.473555 1.44266
thorax -2.56379 0.212447 0.076751
lowerneck -12.4016 13.626 10.1564
upperneck 37.1112 22.7983 -10.7274
head 18.8024 9.50978 -1.85633
rclavicle -1.13804e-014 -1.82882e-014
rhumerus -38.7826 -5.98723 -79.7407
rradius 35.786
rwrist -3.67025
rhand -14.6587 19.7196
rfingers 7.12502
rthumb 11.4939 -9.94526
lclavicle -1.13804e-014 -1.82882e-014
lhumerus -40.3649 33.4083 63.5029
lradius 24.1787
lwrist -4.31758
lhand -11.0737 25.3717
lfingers 7.12502
lthumb 14.9495 54.8122
rfemur -9.07144 -3.54519 27.3776
rtibia 15.3484
rfoot -8.91761 -7.80483
rtoes -2.04096
lfemur -19.935 3.0411 -18.2855
ltibia 71.046
lfoot 7.68769 -9.69765
ltoes -7.97391
112
root 15.6182 23.5933 1.97774 5.18959 4.17163 -1.1674
lowerback 3.32015 0.463186 3.14799
upperback 0.390211 0.751866 1.2621
thorax -1.43738 0.360892 -0.503432
lowerneck -12.7936 13.1358 10.2783
upperneck 37.0752 21.8594 -10.6222
head 18.7162 9.14357 -2.03686
rclavicle 6.11263e-015 -1.39149e-014
rhumerus -37.603 -6.69747 -80.0408
rradius 36.0055
rwrist -3.62348
rhand -14.533 19.4913
rfingers 7.12502
rthumb 11.6152 -10.1668
lclavicle 6.11263e-015 -1.39149e-014
lhumerus -38.9408 33.1873 64.2779
lradius 24.5261
lwrist -3.34854
lhand -11.6042 26.4998
lfingers 7.12502
lthumb 14.4384 55.9775
rfemur -8.83616 -3.63738 27.6747
rtibia 15.294
rfoot -8.96294 -7.47291
rtoes -2.36631
lfemur -20.9737 3.23099 -18.0686
ltibia 72.0904
lfoot 7.14616 -9.73611
ltoes -6.14337
113
root 15.6137 23.5936 2.0713 5.09626 4.15755 -1.51542
lowerback 2.99475 0.577388 3.53474
upperback 0.732867 0.892408 1.33963
thorax -0.894118 0.440412 -0.63987
lowerneck -12.6035 12.7996 10.3795
upperneck 36.8587 21.3363 -10.8421
head 18.5103 8.94547 -2.295
rclavicle 3.52843e-015 3.22031e-014
rhumerus -36.9972 -6.67471 -80.1663
rradius 36.286
rwrist -3.77667
rhand -14.4303 20.112
rfingers 7.12502
rthumb 11.7142 -9.54047
lclavicle 3.52843e-015 3.22031e-014
lhumerus -38.523 33.162 64.5996
lradius 24.7768
lwrist -2.60651
lhand -11.9131 26.8076
lfingers 7.12502
lthumb 14.1407 56.3064
rfemur -8.60102 -3.79319 28.0553
rtibia 15.6299
rfoot -9.24516 -7.25676
rtoes -2.91798
lfemur -22.055 3.58966 -17.7827
ltibia 73.0035
lfoot 6.74902 -9.85785
ltoes -7.92728
